<svg height="800" width="800" version="1.1" id="Capa_1" xmlns="http://www.w3.org/2000/svg" viewBox="0 0 196.407 196.407" xml:space="preserve"><path style="fill:#010002" d="M137.906 196.407H56.63c-3.303 0-5.211-1.249-6.231-2.298-1.911-1.972-1.94-4.348-1.929-4.806v-99.32H37.967c-1.714 0-6.939 0-8.539-3.872-1.668-4.041 2.373-8.5 3.647-9.77 1.789-2.416 50.007-66.373 57.022-73.402C92.53.508 94.971 0 96.592 0c4.27 0 7.201 3.314 7.523 3.693l58.876 71.133c1.557 1.453 5.572 5.816 4.048 9.627-.895 2.265-3.242 3.414-6.979 3.414h-13.038v100.444c.15.945.268 3.106-1.235 5.061-1.55 2.019-4.206 3.035-7.881 3.035zM34.692 84.006c.19 0 1.056.354 3.278.354H54.1v105.029c.036.923.891 1.399 2.53 1.399h81.276c2.015 0 3.085-.433 3.414-.827.236-.29.154-.752.154-.755l-.068-.633V82.246h18.657c.709 0 1.199-.054 1.521-.115-.422-.905-1.557-2.376-2.698-3.468L99.809 7.301c-.383-.429-1.786-1.671-3.214-1.671-.823 0-1.646.422-2.52 1.285-6.739 6.75-56.267 72.454-56.768 73.116-1.449 1.489-2.602 3.271-2.645 3.976l.03-.001z"/></svg>